<?xml version="1.0" standalone="no"?><!DOCTYPE svg PUBLIC "-//W3C//DTD SVG 1.1//EN" "http://www.w3.org/Graphics/SVG/1.1/DTD/svg11.dtd"><svg class="icon" width="200px" height="200.00px" viewBox="0 0 1024 1024" version="1.1" xmlns="http://www.w3.org/2000/svg"><path fill="#e6e6e6" d="M866.368 132.48a32 32 0 0 1 32 32v248a32 32 0 0 1-32 32h-385.92a32 32 0 0 0-32 32v389.696a32 32 0 0 1-32 32h-0.128l-254.912-0.832a32 32 0 0 1-31.936-32V164.544a32 32 0 0 1 32-32h704.896z m-159.36 381.44a32 32 0 0 1 31.424 26.24l0.512 5.76v128h128a32 32 0 1 1 0 64h-128v128a32 32 0 0 1-26.24 31.424l-5.76 0.512a32 32 0 0 1-31.488-26.24l-0.512-5.76v-128h-128a32 32 0 1 1 0-64h128v-128a32 32 0 0 1 26.24-31.424l5.76-0.576z m95.104-322.56H223.488a32 32 0 0 0-32 32v576.64a32 32 0 0 0 32 32h127.808a32 32 0 0 0 32-32v-384a32 32 0 0 1 32-32h386.816a32 32 0 0 0 32-32V223.36a32 32 0 0 0-32-32z" /></svg>
