<?xml version="1.0" standalone="no"?><!DOCTYPE svg PUBLIC "-//W3C//DTD SVG 1.1//EN" "http://www.w3.org/Graphics/SVG/1.1/DTD/svg11.dtd"><svg class="icon" width="200px" height="200.00px" viewBox="0 0 1024 1024" version="1.1" xmlns="http://www.w3.org/2000/svg"><path fill="#e6e6e6" d="M863.424 544.64a64 64 0 0 1 64 64v256a64 64 0 0 1-64 64h-256a64 64 0 0 1-64-64v-320h320z m-384 0v320a64 64 0 0 1-64 64h-256a64 64 0 0 1-64-64v-256a64 64 0 0 1 64-64h320z m352 64h-224v224a32 32 0 0 0 32 32h192a32 32 0 0 0 31.488-26.24l0.512-5.76v-192a32 32 0 0 0-26.24-31.488l-5.76-0.512z m-416 0h-224a32 32 0 0 0-32 32v192l0.512 5.76a32 32 0 0 0 31.488 26.24h192l5.76-0.512a32 32 0 0 0 26.24-31.488v-224z m448-512a64 64 0 0 1 64 64v256a64 64 0 0 1-64 64h-320v-320a64 64 0 0 1 64-64z m-448 0a64 64 0 0 1 64 64v320h-320a64 64 0 0 1-64-64v-256a64 64 0 0 1 64-64z m416 64h-192a32 32 0 0 0-32 32v224h224l5.76-0.512a32 32 0 0 0 26.24-31.488v-192l-0.512-5.76a32 32 0 0 0-31.488-26.24z m-448 0h-192a32 32 0 0 0-32 32v192l0.512 5.76a32 32 0 0 0 31.488 26.24h224v-224l-0.512-5.76a32 32 0 0 0-31.488-26.24z" /></svg>