<?xml version="1.0" standalone="no"?><!DOCTYPE svg PUBLIC "-//W3C//DTD SVG 1.1//EN" "http://www.w3.org/Graphics/SVG/1.1/DTD/svg11.dtd"><svg class="icon" width="200px" height="200.00px" viewBox="0 0 1024 1024" version="1.1" xmlns="http://www.w3.org/2000/svg"><path fill="#e6e6e6" d="M738.176 121.536a32 32 0 0 1 11.712 43.712l-416 720.512a32 32 0 1 1-55.424-32l416-720.512a32 32 0 0 1 43.712-11.712zM960 512c-133.76 213.312-283.072 320-448 320-23.424 0-46.592-2.176-69.376-6.464l34.176-59.328c11.648 1.216 23.36 1.792 35.2 1.792 141.44 0 269.44-85.312 384-256-52.992-78.848-108.8-139.52-167.488-181.952l29.312-50.624C828.8 332.608 896.192 410.176 960 512zM512 192c23.872 0 47.424 2.24 70.656 6.72l-34.112 59.2A344.448 344.448 0 0 0 512 256C370.56 256 242.56 341.312 128 512c53.248 79.296 109.44 140.16 168.448 182.592l-29.312 50.752C195.84 692.096 128.128 614.336 64 512c133.76-213.312 283.072-320 448-320z m192 320a192 192 0 0 1-191.296 192l41.088-71.04a128 128 0 0 0 83.904-145.28l40.96-71.04c16.128 28.096 25.344 60.608 25.344 95.36zM512.64 320l-40.64 70.4a128 128 0 0 0-85.312 147.84l-40.64 70.4A192 192 0 0 1 512 320h0.64z" /></svg>