<?xml version="1.0" standalone="no"?><!DOCTYPE svg PUBLIC "-//W3C//DTD SVG 1.1//EN" "http://www.w3.org/Graphics/SVG/1.1/DTD/svg11.dtd"><svg class="icon" width="200px" height="200.00px" viewBox="0 0 1024 1024" version="1.1" xmlns="http://www.w3.org/2000/svg"><path fill="#e6e6e6" d="M219.712 175.488l294.08 294.144 294.208-294.144a32 32 0 0 1 40.832-3.712l4.48 3.712a32 32 0 0 1 0 45.248L559.04 514.88l294.144 294.208a32 32 0 1 1-45.248 45.248L513.792 560.192l-294.08 294.144a32 32 0 0 1-40.832 3.712l-4.48-3.712a32 32 0 0 1 0-45.248l294.144-294.208-294.08-294.144a32 32 0 1 1 45.248-45.248z" /></svg>