<?xml version="1.0" standalone="no"?><!DOCTYPE svg PUBLIC "-//W3C//DTD SVG 1.1//EN" "http://www.w3.org/Graphics/SVG/1.1/DTD/svg11.dtd"><svg class="icon" width="200px" height="200.00px" viewBox="0 0 1024 1024" version="1.1" xmlns="http://www.w3.org/2000/svg"><path fill="#e6e6e6" d="M511.488 132.352c131.84 0 450.816 68.16 450.816 317.12a450.816 450.816 0 0 1-684.864 385.408c-68.224-41.472 207.616-204.352 143.04-284.096-64.512-79.744-319.296 98.816-340.032 31.36-17.536-57.088-19.584-79.488-19.84-112.96v-19.712c0-248.96 318.976-317.12 450.88-317.12zM480 768a32 32 0 1 0 0 64 32 32 0 0 0 0-64z m192-64a32 32 0 1 0 0 64 32 32 0 0 0 0-64z m128-128a32 32 0 1 0 0 64 32 32 0 0 0 0-64zM256 320a64 64 0 1 0 0 128 64 64 0 0 0 0-128z m544 64a32 32 0 1 0 0 64 32 32 0 0 0 0-64z m-128-128a32 32 0 1 0 0 64 32 32 0 0 0 0-64z" /></svg>