<?xml version="1.0" standalone="no"?><!DOCTYPE svg PUBLIC "-//W3C//DTD SVG 1.1//EN" "http://www.w3.org/Graphics/SVG/1.1/DTD/svg11.dtd"><svg class="icon" width="200px" height="200.00px" viewBox="0 0 1024 1024" version="1.1" xmlns="http://www.w3.org/2000/svg"><path fill="#e6e6e6" d="M896 320a64 64 0 0 1 64 64v512a64 64 0 0 1-64 64H384a64 64 0 0 1-64-64V384a64 64 0 0 1 64-64h512z m-192-256a64 64 0 0 1 64 64v128H320a64 64 0 0 0-63.552 56.512L256 320v448H128a64 64 0 0 1-64-64V128a64 64 0 0 1 64-64h576z" /></svg>