<?xml version="1.0" standalone="no"?><!DOCTYPE svg PUBLIC "-//W3C//DTD SVG 1.1//EN" "http://www.w3.org/Graphics/SVG/1.1/DTD/svg11.dtd"><svg class="icon" width="200px" height="200.00px" viewBox="0 0 1024 1024" version="1.1" xmlns="http://www.w3.org/2000/svg"><path fill="#e6e6e6" d="M197.312 125.952h636.672a64 64 0 0 1 64 64v1.6H133.312v-1.6a64 64 0 0 1 64-64z m638.784 130.752l-63.936 645.632a64 64 0 0 1-63.68 57.664H315.2a64 64 0 0 1-63.744-58.176l-59.264-645.12h643.904z m-483.2 99.2h-3.84a29.76 29.76 0 0 0-27.712 31.68l30.08 450.944a32 32 0 0 0 32 29.888h1.984l2.048-0.064a29.888 29.888 0 0 0 27.84-31.872l-30.464-450.752a32 32 0 0 0-31.936-29.888z m160.512 0.512a32 32 0 0 0-32 32v448a32 32 0 1 0 64 0v-448a32 32 0 0 0-32-32z m166.784-2.816h-2.304a32 32 0 0 0-31.936 29.568L611.84 836.48a29.696 29.696 0 0 0 29.568 31.936h2.368a32 32 0 0 0 31.872-29.568l34.112-453.376a29.696 29.696 0 0 0-29.568-31.872zM547.264 64c31.872 0 58.176 24 61.76 54.912l0.384 7.296h-192c0-34.368 27.84-62.208 62.208-62.208h67.648z" /></svg>