<?xml version="1.0" standalone="no"?><!DOCTYPE svg PUBLIC "-//W3C//DTD SVG 1.1//EN" "http://www.w3.org/Graphics/SVG/1.1/DTD/svg11.dtd"><svg class="icon" width="200px" height="200.00px" viewBox="0 0 1024 1024" version="1.1" xmlns="http://www.w3.org/2000/svg"><path fill="#e6e6e6" d="M512 0a512 512 0 1 1 0 1024A512 512 0 0 1 512 0z m0 64a448 448 0 1 0 0 896A448 448 0 0 0 512 64zM772.224 584a32 32 0 0 1 31.488 26.24l0.512 5.76v128.896c0 15.744-11.392 28.8-26.304 31.552l-5.76 0.512h-512a32 32 0 0 1-31.744-26.432l-0.512-5.632v-128a32 32 0 0 1 63.488-5.76l0.512 5.76v96h448.32V616a32 32 0 0 1 26.24-31.424l5.76-0.576z m-256-335.744l5.76 0.512a32 32 0 0 1 26.24 31.488v255.616l79.36-79.36a32 32 0 0 1 45.184 45.248L539.776 634.88a32.128 32.128 0 0 1-49.728 5.632L354.24 504.768l-3.648-4.48a32 32 0 0 1 3.648-40.768l4.48-3.712a32 32 0 0 1 40.832 3.712l84.672 84.8V280.256l0.512-5.76a32 32 0 0 1 31.488-26.24z" /></svg>