<?xml version="1.0" standalone="no"?><!DOCTYPE svg PUBLIC "-//W3C//DTD SVG 1.1//EN" "http://www.w3.org/Graphics/SVG/1.1/DTD/svg11.dtd"><svg class="icon" width="200px" height="200.00px" viewBox="0 0 1024 1024" version="1.1" xmlns="http://www.w3.org/2000/svg"><path fill="#e6e6e6" d="M501.632 94.848a26.688 26.688 0 0 1 4.8 52.928l-4.8 0.448h-368a32 32 0 0 0-31.488 26.24l-0.512 5.76v725.312a32 32 0 0 0 26.24 31.424l5.76 0.576h725.312a32 32 0 0 0 31.488-26.24l0.512-5.76v-272c0-13.12 9.408-24 21.888-26.24l4.8-0.448c14.72 0 26.688 11.968 26.688 26.688v293.312a64 64 0 0 1-64 64h-768a64 64 0 0 1-64-64v-768a64 64 0 0 1 64-64h389.312z m372.224-12.032a32 32 0 0 1 48.256 41.984l-629.76 724.544a32 32 0 0 1-48.32-41.984z" /></svg>