<?xml version="1.0" standalone="no"?><!DOCTYPE svg PUBLIC "-//W3C//DTD SVG 1.1//EN" "http://www.w3.org/Graphics/SVG/1.1/DTD/svg11.dtd"><svg class="icon" width="200px" height="200.00px" viewBox="0 0 1024 1024" version="1.1" xmlns="http://www.w3.org/2000/svg"><path fill="#e6e6e6" d="M512 0a512 512 0 1 1 0 1024A512 512 0 0 1 512 0z m0 64a448 448 0 1 0 0 896A448 448 0 0 0 512 64zM373.504 740.032l-98.56 7.936 8-98.432 90.56 90.496z m335.36-336.32L400.64 712.064 310.016 621.568l308.352-308.352 90.496 90.496z m36.224-126.72a64 64 0 0 1 0 90.496l-6.144 6.144-90.496-90.496 6.144-6.144a64 64 0 0 1 90.496 0z" /></svg>