<?xml version="1.0" standalone="no"?><!DOCTYPE svg PUBLIC "-//W3C//DTD SVG 1.1//EN" "http://www.w3.org/Graphics/SVG/1.1/DTD/svg11.dtd"><svg class="icon" width="200px" height="200.00px" viewBox="0 0 1024 1024" version="1.1" xmlns="http://www.w3.org/2000/svg"><path fill="#e6e6e6" d="M512 0a512 512 0 1 1 0 1024A512 512 0 0 1 512 0z m0 64a448 448 0 1 0 0 896A448 448 0 0 0 512 64z m-0.704 639.552a32 32 0 1 1 0 64 32 32 0 0 1 0-64z m1.024-446.464a32 32 0 0 1 31.488 26.24l0.512 5.76v320a32 32 0 0 1-63.488 5.76l-0.512-5.76v-320a32 32 0 0 1 32-32z" /></svg>