<?xml version="1.0" standalone="no"?><!DOCTYPE svg PUBLIC "-//W3C//DTD SVG 1.1//EN" "http://www.w3.org/Graphics/SVG/1.1/DTD/svg11.dtd"><svg class="icon" width="200px" height="200.00px" viewBox="0 0 1024 1024" version="1.1" xmlns="http://www.w3.org/2000/svg"><path fill="#e6e6e6" d="M478.4 73.472a32 32 0 0 1 0 45.248L306.112 290.944H521.6c176.704 0 315.392 119.68 315.392 288 0 168.448-117.44 288-307.904 288-1.28 0-14.464-1.536-39.68-4.48a36.096 36.096 0 0 1-31.808-35.84 28.416 28.416 0 0 1 31.744-28.224c25.792 3.008 39.424 4.48 40.832 4.48 181.952-8.32 242.816-106.752 242.816-223.872 0-117.12-103.168-217.024-238.656-223.68l-12.8-0.32h-224l-2.624-0.32L475.776 535.68a32 32 0 1 1-45.248 45.248L204.16 354.56a32 32 0 0 1-6.464-35.968l0.768-4.352a31.872 31.872 0 0 1 8.32-14.528l226.304-226.24a32 32 0 0 1 45.248 0z" /></svg>