<?xml version="1.0" standalone="no"?><!DOCTYPE svg PUBLIC "-//W3C//DTD SVG 1.1//EN" "http://www.w3.org/Graphics/SVG/1.1/DTD/svg11.dtd"><svg class="icon" width="200px" height="200.00px" viewBox="0 0 1024 1024" version="1.1" xmlns="http://www.w3.org/2000/svg"><path fill="#e6e6e6" d="M398.528 192.32a64 64 0 0 1 55.296 31.744l48.896 83.84a32 32 0 0 0 27.648 15.936H896a64 64 0 0 1 64 64l-0.128 444.48a64 64 0 0 1-64 64H127.616a64 64 0 0 1-64-63.808L62.08 378.24a64 64 0 0 1 13.568-39.552L170.432 216.96a64 64 0 0 1 50.496-24.64h177.6z m-20.48 64.64H231.168a32 32 0 0 0-26.496 14.08L133.44 376.768a32 32 0 0 0-5.44 17.92v406.4a32 32 0 0 0 32 32h704a32 32 0 0 0 32-32V416.768a32 32 0 0 0-32-32H493.056a32 32 0 0 1-27.2-15.104L405.248 272a32 32 0 0 0-27.2-15.104z" /></svg>