<?xml version="1.0" standalone="no"?><!DOCTYPE svg PUBLIC "-//W3C//DTD SVG 1.1//EN" "http://www.w3.org/Graphics/SVG/1.1/DTD/svg11.dtd"><svg class="icon" width="200px" height="200.00px" viewBox="0 0 1024 1024" version="1.1" xmlns="http://www.w3.org/2000/svg"><path fill="#e6e6e6" d="M597.756264 24.774245a57.919638 57.919638 0 0 1 63.103606-22.527859c36.095774 11.26393 74.431535 24.767845 108.287323 45.119718 20.287873 13.503916 31.551803 38.33576 27.071831 60.86362a100.415372 100.415372 0 0 0 27.07183 92.479422c24.767845 24.831845 58.623634 33.855788 92.479422 27.07183 24.767845-6.783958 49.59969 6.783958 60.86362 27.071831a575.9964 575.9964 0 0 1 45.119718 108.287323 56.703646 56.703646 0 0 1-22.527859 63.103606c-29.311817 20.351873-47.359704 49.66369-47.359704 85.759464 0 36.095774 18.047887 67.647577 47.359704 85.695464 20.287873 13.503916 29.311817 38.39976 22.527859 63.167606-11.26393 36.095774-24.767845 74.431535-45.119718 108.223323-13.503916 20.351873-38.33576 31.615802-60.86362 27.071831a100.415372 100.415372 0 0 0-92.479422 27.071831c-24.831845 22.591859-33.855788 58.687633-27.07183 92.479422 6.783958 24.831845-6.783958 49.66369-27.071831 60.927619a575.9964 575.9964 0 0 1-108.287323 45.119718c-4.479972 2.239986-11.26393 2.239986-15.807902 2.239986a58.879632 58.879632 0 0 1-47.359704-24.831845c-20.287873-29.311817-49.59969-47.359704-85.695464-47.359704s-67.647577 18.047887-85.759464 47.359704a57.919638 57.919638 0 0 1-63.103606 22.591859c-36.095774-11.26393-74.431535-24.831845-108.287323-45.119718-20.287873-13.567915-31.551803-38.39976-27.071831-60.927619a100.415372 100.415372 0 0 0-27.07183-92.479422c-22.527859-24.767845-58.623634-33.791789-92.479422-27.071831-24.767845 4.479972-49.59969-6.719958-60.86362-27.071831a575.9964 575.9964 0 0 1-45.119718-108.223323 56.703646 56.703646 0 0 1 22.527859-63.167606c29.311817-20.287873 47.359704-49.59969 47.359704-85.759464 0-36.031775-18.047887-67.647577-47.359704-85.695464a57.919638 57.919638 0 0 1-22.527859-63.103606C13.439916 327.044356 27.007831 288.644596 47.359704 254.852807c13.503916-20.287873 38.33576-31.551803 60.86362-27.071831a100.415372 100.415372 0 0 0 92.479422-27.07183c24.831845-22.527859 33.855788-58.623634 27.07183-92.479422-6.783958-24.831845 6.783958-49.59969 27.071831-60.86362A575.9964 575.9964 0 0 1 363.13373 2.246386a56.703646 56.703646 0 0 1 63.167606 22.527859c20.287873 29.311817 49.59969 47.359704 85.695464 47.359704S579.644377 54.086062 597.756264 24.774245zM511.9968 252.612821C369.917688 252.612821 252.606421 369.860088 252.606421 512.0032c0 142.079112 117.311267 259.390379 259.390379 259.390379 142.079112 0 259.390379-117.311267 259.390379-259.390379 0-142.079112-117.247267-259.390379-259.390379-259.390379zM511.9968 384.004c70.143562 0 127.9992 57.855638 127.9992 127.9992 0 70.079562-57.855638 127.9992-127.9992 127.9992-70.079562 0-127.9992-57.919638-127.9992-127.9992 0-70.143562 57.919638-127.9992 127.9992-127.9992z" /></svg>