<?xml version="1.0" standalone="no"?><!DOCTYPE svg PUBLIC "-//W3C//DTD SVG 1.1//EN" "http://www.w3.org/Graphics/SVG/1.1/DTD/svg11.dtd"><svg class="icon" width="200px" height="200.00px" viewBox="0 0 1024 1024" version="1.1" xmlns="http://www.w3.org/2000/svg"><path fill="#e6e6e6" d="M906.24 62.592a64 64 0 0 1 64 64v768a64 64 0 0 1-64 64h-768a64 64 0 0 1-64-64v-160a32 32 0 1 1 64 0v128a32 32 0 0 0 26.24 31.488l5.76 0.512h704a32 32 0 0 0 31.552-26.24l0.512-5.76v-704a32 32 0 0 0-32-32h-704a32 32 0 0 0-31.488 26.24l-0.512 5.76v128a32 32 0 1 1-64 0v-160c0-35.328 92.608-64 128-64h704zM583.68 265.024l4.48 3.712 226.304 226.24a32 32 0 0 1-5.632 49.728l-223.68 223.552a32 32 0 0 1-45.248-45.248l171.84-171.84H119.424a32 32 0 0 1-31.488-26.24l-0.512-5.76a32 32 0 0 1 26.24-31.552l5.76-0.512h596.608L542.912 314.048a32 32 0 0 1-3.712-40.832l3.712-4.48a32 32 0 0 1 40.832-3.648z" /></svg>