<?xml version="1.0" standalone="no"?><!DOCTYPE svg PUBLIC "-//W3C//DTD SVG 1.1//EN" "http://www.w3.org/Graphics/SVG/1.1/DTD/svg11.dtd"><svg class="icon" width="200px" height="200.00px" viewBox="0 0 1024 1024" version="1.1" xmlns="http://www.w3.org/2000/svg"><path fill="#e6e6e6" d="M512 0a512 512 0 1 1 0 1024A512 512 0 0 1 512 0z m1.408 369.664a31.872 31.872 0 0 0-12.352 2.432 32 32 0 0 0-15.04 8.512l-45.248 45.248a32 32 0 0 0 40.576 49.088v246.72l0.32 3.648h-3.264a32 32 0 1 0 0 64h64a32 32 0 0 0 2.688-63.872l0.32-3.84v-320a32 32 0 0 0-32-32z m-32.448-101.76a32 32 0 1 0 63.232 10.048 32 32 0 0 0-63.232-10.048z" /></svg>