<?xml version="1.0" standalone="no"?><!DOCTYPE svg PUBLIC "-//W3C//DTD SVG 1.1//EN" "http://www.w3.org/Graphics/SVG/1.1/DTD/svg11.dtd"><svg class="icon" width="200px" height="200.00px" viewBox="0 0 1024 1024" version="1.1" xmlns="http://www.w3.org/2000/svg"><path fill="#e6e6e6" d="M721.984 218.24a32 32 0 0 1 45.248 45.248L516.736 513.92l250.496 250.56a32 32 0 0 1-45.248 45.248L450.56 538.24a31.872 31.872 0 0 1-9.28-19.904v-8.704a31.872 31.872 0 0 1 9.28-19.84zM249.216 509.632a31.872 31.872 0 0 1 9.28-19.84L529.92 218.24a32 32 0 0 1 45.248 45.248L324.736 513.92l250.496 250.56a32 32 0 0 1-45.248 45.248L258.56 538.24a31.872 31.872 0 0 1-9.28-19.904z" /></svg>