<?xml version="1.0" standalone="no"?><!DOCTYPE svg PUBLIC "-//W3C//DTD SVG 1.1//EN" "http://www.w3.org/Graphics/SVG/1.1/DTD/svg11.dtd"><svg class="icon" width="200px" height="200.00px" viewBox="0 0 1024 1024" version="1.1" xmlns="http://www.w3.org/2000/svg"><path fill="#e6e6e6" d="M512 0a512 512 0 1 1 0 1024A512 512 0 0 1 512 0z m233.408 298.368l-308.8 355.136L279.424 420.48a32 32 0 0 0-39.36-11.456l-5.056 2.816a32 32 0 0 0-8.64 44.416l178.944 265.28c0.96 1.408 1.92 2.688 3.072 3.904a32 32 0 0 0 49.408 1.344l336-386.432a32 32 0 0 0-48.384-41.984z" /></svg>