<?xml version="1.0" standalone="no"?><!DOCTYPE svg PUBLIC "-//W3C//DTD SVG 1.1//EN" "http://www.w3.org/Graphics/SVG/1.1/DTD/svg11.dtd"><svg class="icon" width="200px" height="200.00px" viewBox="0 0 1024 1024" version="1.1" xmlns="http://www.w3.org/2000/svg"><path fill="#e6e6e6" d="M512 0a512 512 0 1 1 0 1024A512 512 0 0 1 512 0z m0 64a448 448 0 1 0 0 896A448 448 0 0 0 512 64z m262.72 231.232a32 32 0 0 1 6.528 40.448l-3.328 4.672-335.936 386.432a32 32 0 0 1-49.408-1.28 30.208 30.208 0 0 1-3.136-3.968L246.4 509.312a32 32 0 1 1 53.056-35.84l121.408 180.032L729.6 298.368a32 32 0 0 1 45.12-3.136z" /></svg>