<?xml version="1.0" standalone="no"?><!DOCTYPE svg PUBLIC "-//W3C//DTD SVG 1.1//EN" "http://www.w3.org/Graphics/SVG/1.1/DTD/svg11.dtd"><svg class="icon" width="200px" height="200.00px" viewBox="0 0 1024 1024" version="1.1" xmlns="http://www.w3.org/2000/svg"><path fill="#e6e6e6" d="M513.856 34.944a32 32 0 0 1 32 32l-0.064 416h416.064a32 32 0 1 1 0 64H545.792l0.064 416a32 32 0 0 1-26.24 31.488l-5.76 0.512a32 32 0 0 1-32-32l-0.064-416H65.856a32 32 0 1 1 0-64h415.936l0.064-416a32 32 0 0 1 26.24-31.488z" /></svg>