<?xml version="1.0" standalone="no"?><!DOCTYPE svg PUBLIC "-//W3C//DTD SVG 1.1//EN" "http://www.w3.org/Graphics/SVG/1.1/DTD/svg11.dtd"><svg class="icon" width="200px" height="200.00px" viewBox="0 0 1024 1024" version="1.1" xmlns="http://www.w3.org/2000/svg"><path fill="#e6e6e6" d="M512 64c212.096 0 384 158.592 384 354.24S621.824 960 512 960c-109.824 0-257.92-252.8-319.808-355.328C149.376 533.76 128 471.552 128 418.24 128 222.592 299.904 64 512 64z m0 64C335.296 128 192 263.936 192 431.68c0 45.696 17.856 98.944 53.504 159.744C297.088 679.232 420.48 896 512 896c91.52 0 320-296.64 320-464.32S688.704 128 512 128z m0 128a192 192 0 1 1 0 384 192 192 0 0 1 0-384z m0 64a128 128 0 1 0 0 256 128 128 0 0 0 0-256z" /></svg>