<?xml version="1.0" standalone="no"?><!DOCTYPE svg PUBLIC "-//W3C//DTD SVG 1.1//EN" "http://www.w3.org/Graphics/SVG/1.1/DTD/svg11.dtd"><svg class="icon" width="200px" height="200.00px" viewBox="0 0 1024 1024" version="1.1" xmlns="http://www.w3.org/2000/svg"><path fill="#e6e6e6" d="M515.392 388.48m32 0l256 0q32 0 32 32l0 0q0 32-32 32l-256 0q-32 0-32-32l0 0q0-32 32-32ZM195.392 196.48m32 0l576 0q32 0 32 32l0 0q0 32-32 32l-576 0q-32 0-32-32l0 0q0-32 32-32ZM515.392 580.48m32 0l256 0q32 0 32 32l0 0q0 32-32 32l-256 0q-32 0-32-32l0 0q0-32 32-32ZM195.392 772.48m32 0l576 0q32 0 32 32l0 0q0 32-32 32l-576 0q-32 0-32-32l0 0q0-32 32-32ZM210.368 539.712L372.16 636.8a32 32 0 0 0 48.448-27.456V415.232a32 32 0 0 0-48.448-27.52L210.368 484.928a32 32 0 0 0 0 54.848z" /></svg>