<?xml version="1.0" standalone="no"?><!DOCTYPE svg PUBLIC "-//W3C//DTD SVG 1.1//EN" "http://www.w3.org/Graphics/SVG/1.1/DTD/svg11.dtd"><svg class="icon" width="200px" height="200.00px" viewBox="0 0 1024 1024" version="1.1" xmlns="http://www.w3.org/2000/svg"><path fill="#e6e6e6" d="M512 0a512 512 0 1 1 0 1024A512 512 0 0 1 512 0z m0 64a448 448 0 1 0 0 896A448 448 0 0 0 512 64z m31.488 678.72a32 32 0 1 1-1.152 64 32 32 0 0 1 1.152-64z m-32.768-517.12a160 160 0 0 1 64.64 306.368v121.472c0 14.4-14.336 26.048-32 26.048-15.68 0-28.8-9.216-31.488-21.376l-0.512-4.672V513.6c0-14.4 14.336-26.112 32-26.112h-0.576v-0.128a106.688 106.688 0 0 0-32.064-208.448c-47.296 0-85.376 43.968-94.08 74.688-0.64 2.24-3.584 10.368-4.992 20.48-1.088 8.064-0.64 18.304-1.472 21.12-9.664 32-70.4 21.376-57.6-42.24 14.848-73.088 80.704-127.36 158.08-127.36z" /></svg>