<?xml version="1.0" standalone="no"?><!DOCTYPE svg PUBLIC "-//W3C//DTD SVG 1.1//EN" "http://www.w3.org/Graphics/SVG/1.1/DTD/svg11.dtd"><svg class="icon" width="200px" height="200.00px" viewBox="0 0 1024 1024" version="1.1" xmlns="http://www.w3.org/2000/svg"><path fill="#e6e6e6" d="M448 192a382.72 382.72 0 0 1 262.784 104l-41.216 49.152a320 320 0 1 0 95.168 185.344l52.032-61.952A384 384 0 1 1 448 192z m466.688 17.472a32 32 0 0 1 6.528 40.448l-3.392 4.672-419.84 483.008a32 32 0 0 1-49.408-1.28 30.208 30.208 0 0 1-3.136-3.968L266.496 467.072a32 32 0 1 1 53.12-35.776l157.184 233.088 392.768-451.84a32 32 0 0 1 45.12-3.072z" /></svg>