<?xml version="1.0" standalone="no"?><!DOCTYPE svg PUBLIC "-//W3C//DTD SVG 1.1//EN" "http://www.w3.org/Graphics/SVG/1.1/DTD/svg11.dtd"><svg class="icon" width="200px" height="200.00px" viewBox="0 0 1024 1024" version="1.1" xmlns="http://www.w3.org/2000/svg"><path fill="#e6e6e6" d="M544 82.496l323.968 187.008a64 64 0 0 1 32 55.424v374.144a64 64 0 0 1-32 55.424L544 941.44a64 64 0 0 1-64 0L156.032 754.56a64 64 0 0 1-32-55.424V324.928a64 64 0 0 1 32-55.424L480 82.56a64 64 0 0 1 64 0z m106.88 298.048a192 192 0 1 0-53.12 309.12c17.024-17.088 18.176-32.96 3.392-47.744-14.72-14.72-32.384-15.36-53.056-1.92A128 128 0 1 1 638.72 549.44c-5.568 14.912-1.536 29.184 12.16 42.88 13.632 13.632 27.264 14.72 40.96 3.264 28.8-62.08 18.112-155.904-40.96-215.04z" /></svg>