<?xml version="1.0" standalone="no"?><!DOCTYPE svg PUBLIC "-//W3C//DTD SVG 1.1//EN" "http://www.w3.org/Graphics/SVG/1.1/DTD/svg11.dtd"><svg class="icon" width="200px" height="200.00px" viewBox="0 0 1024 1024" version="1.1" xmlns="http://www.w3.org/2000/svg"><path fill="#e6e6e6" d="M732.8 90.24a128 128 0 1 1-83.2 225.216L411.456 494.976a128.512 128.512 0 0 1 1.216 46.336l239.744 167.808a128 128 0 1 1-37.12 52.096L386.368 601.088a128 128 0 1 1-4.224-164.352l230.656-173.76a128 128 0 0 1 119.936-172.8z m1.92 652.864a64 64 0 1 0 0 128 64 64 0 0 0 0-128zM286.272 457.408a64 64 0 1 0 0 128 64 64 0 0 0 0-128zM732.8 154.24a64 64 0 1 0 0 128 64 64 0 0 0 0-128z" /></svg>