<?xml version="1.0" standalone="no"?><!DOCTYPE svg PUBLIC "-//W3C//DTD SVG 1.1//EN" "http://www.w3.org/Graphics/SVG/1.1/DTD/svg11.dtd"><svg class="icon" width="200px" height="200.00px" viewBox="0 0 1024 1024" version="1.1" xmlns="http://www.w3.org/2000/svg"><path fill="#e6e6e6" d="M520.704 68.416a26.688 26.688 0 0 1 4.8 52.928l-4.8 0.448h-368a32 32 0 0 0-31.424 26.24l-0.576 5.76v725.248a32 32 0 0 0 26.24 31.488l5.76 0.512H814.08c15.68 0 92.8-11.264 95.488-26.24l0.512-5.76v-208c0-13.056 9.408-23.936 21.824-26.24l4.8-0.384c14.72 0 26.688 11.904 26.688 26.688v229.312a64 64 0 0 1-64 64h-768a64 64 0 0 1-64-64v-768a64 64 0 0 1 64-64h389.312z m185.664 93.696l4.48 3.712 221.44 223.104a31.936 31.936 0 0 1 6.464 9.28l1.856 5.184 0.768 4.416a32 32 0 0 1-2.752 31.488l-3.712 4.48L838.4 545.28a2631.232 2631.232 0 0 0-127.616 146.752 32 32 0 0 1-48.96-40.832l3.712-4.48 167.552-202.24-208-0.256c-131.392 6.4-251.456 161.024-258.56 277.12l-0.384 10.88c0 15.744-12.8 28.608-28.608 28.608h-6.72a28.672 28.672 0 0 1-28.16-23.488l-0.512-5.12c0-163.776 151.36-345.6 321.024-352.064h209.92L665.6 211.072a32 32 0 0 1 40.832-48.96z" /></svg>