<?xml version="1.0" standalone="no"?><!DOCTYPE svg PUBLIC "-//W3C//DTD SVG 1.1//EN" "http://www.w3.org/Graphics/SVG/1.1/DTD/svg11.dtd"><svg class="icon" width="200px" height="200.00px" viewBox="0 0 1024 1024" version="1.1" xmlns="http://www.w3.org/2000/svg"><path fill="#e6e6e6" d="M511.616 736.512a32 32 0 1 1 0 64h-384a32 32 0 1 1 0-64h384z m192.64-465.088l5.76 0.512a32 32 0 0 1 26.24 31.488v336.448l126.72-126.72a32 32 0 0 1 45.248 45.312l-178.304 178.368a32.128 32.128 0 0 1-49.728 5.632L499.136 561.408l-3.648-4.48a32 32 0 0 1 3.648-40.768l4.48-3.712a32 32 0 0 1 40.768 3.712l127.872 127.936V303.424l0.576-5.76a32 32 0 0 1 31.488-26.24z m-320.64 209.088a32 32 0 1 1 0 64h-256a32 32 0 0 1 0-64h256z m128-256a32 32 0 1 1 0 64h-384a32 32 0 0 1 0-64h384z" /></svg>