<?xml version="1.0" standalone="no"?><!DOCTYPE svg PUBLIC "-//W3C//DTD SVG 1.1//EN" "http://www.w3.org/Graphics/SVG/1.1/DTD/svg11.dtd"><svg class="icon" width="200px" height="200.00px" viewBox="0 0 1024 1024" version="1.1" xmlns="http://www.w3.org/2000/svg"><path fill="#e6e6e6" d="M442.88 196.864a32 32 0 0 0-32 32v576a32 32 0 0 0 64 0v-576a32 32 0 0 0-32-32z m-128 0a32 32 0 0 0-32 32v576a32 32 0 0 0 64 0v-576a32 32 0 0 0-32-32zM553.6 311.04a32 32 0 0 0 0 45.248l163.84 163.84-163.84 163.968a32 32 0 0 0 45.248 45.248l180.992-181.056a32.064 32.064 0 0 0 4.672-5.824 32 32 0 0 0 2.432-39.744 32 32 0 0 0-7.04-10.624L598.656 311.04a32 32 0 0 0-45.184 0z" /></svg>