<?xml version="1.0" standalone="no"?><!DOCTYPE svg PUBLIC "-//W3C//DTD SVG 1.1//EN" "http://www.w3.org/Graphics/SVG/1.1/DTD/svg11.dtd"><svg class="icon" width="200px" height="199.80px" viewBox="0 0 1025 1024" version="1.1" xmlns="http://www.w3.org/2000/svg"><path fill="#e6e6e6" d="M535.36 472.832c1.728 1.728 3.2 3.584 4.48 5.568l178.304 178.432a32 32 0 0 1-45.312 45.248l-126.72-126.72 0.128 272.448a32 32 0 0 1-26.24 31.488l-5.76 0.512a32 32 0 0 1-31.488-26.24l-0.512-5.76-0.064-276.672-127.872 128a32 32 0 0 1-40.768 3.648l-4.48-3.712a32 32 0 0 1-3.648-40.832l3.648-4.416 181.056-180.992a32 32 0 0 1 45.248 0z m-23.488-344.576c111.616 0 181.888 81.408 234.496 148.672 10.24 8.448 10.24 14.592 25.536 14.592 84.16 0 251.968 108.928 251.968 243.84 0 105.344-69.888 198.4-167.808 232.64l-35.84 11.52a33.216 33.216 0 0 1-43.008-27.2 45.184 45.184 0 0 1 32.768-49.664c30.4-8.32 45.76-12.608 46.08-12.736 40.96-18.752 102.528-94.976 102.528-154.56 0-84.032-84.416-151.808-172.352-161.92-58.688-6.72-97.6-27.904-116.928-63.552-29.44-64.32-86.4-100.224-157.44-100.224-69.824 0-134.4 32.256-167.488 94.848l-1.536 1.728c-8.128 8.96-48.832 50.368-121.088 67.2-81.28 18.944-159.168 79.744-159.168 161.92 0 56.96 60.8 125.44 108.288 154.56l3.2 1.536 13.632 6.272c19.712 8.96 30.336 30.72 25.152 51.84a30.208 30.208 0 0 1-42.56 20.032 326.656 326.656 0 0 0-10.24-4.864A245.248 245.248 0 0 1-0.064 535.36c0-134.912 164.8-243.84 240-243.84 20.48 0 23.168-6.912 29.056-14.592 50.88-67.2 131.328-148.672 242.944-148.672z" /></svg>