<?xml version="1.0" standalone="no"?><!DOCTYPE svg PUBLIC "-//W3C//DTD SVG 1.1//EN" "http://www.w3.org/Graphics/SVG/1.1/DTD/svg11.dtd"><svg class="icon" width="200px" height="200.00px" viewBox="0 0 1024 1024" version="1.1" xmlns="http://www.w3.org/2000/svg"><path fill="#e6e6e6" d="M512 0a512 512 0 1 1 0 1024A512 512 0 0 1 512 0z m0 64a448 448 0 1 0 0 896A448 448 0 0 0 512 64z m256.576 522.88a32 32 0 0 1 32 32v128a32.064 32.064 0 0 1-32.064 32.896h-512a32 32 0 0 1-32.256-32.064v-128a32 32 0 0 1 64 0l-0.064 96h448.32V618.816a32 32 0 0 1 26.24-31.488z m-282.24-326.464a32 32 0 0 1 49.728 5.568l133.056 133.12a32 32 0 1 1-45.248 45.312l-79.36-79.36v255.616a32 32 0 0 1-26.24 31.488l-5.76 0.512a32 32 0 0 1-32-32V356.736L395.84 441.408a32 32 0 0 1-40.832 3.712l-4.416-3.712a32 32 0 0 1 0-45.248z" /></svg>