<?xml version="1.0" standalone="no"?><!DOCTYPE svg PUBLIC "-//W3C//DTD SVG 1.1//EN" "http://www.w3.org/Graphics/SVG/1.1/DTD/svg11.dtd"><svg class="icon" width="200px" height="200.00px" viewBox="0 0 1024 1024" version="1.1" xmlns="http://www.w3.org/2000/svg"><path fill="#e6e6e6" d="M959.04 596.032a32 32 0 0 1 32 32v320a32.064 32.064 0 0 1-32.064 32.896h-896a32 32 0 0 1-32.256-32.064v-320a32 32 0 0 1 64 0v288.128h832.32V628.032a32 32 0 0 1 26.24-31.488zM486.912 62.912a32 32 0 0 1 49.792 5.76l313.984 313.984a32 32 0 1 1-45.248 45.312l-262.4-262.4v592.32a32 32 0 0 1-26.24 31.488l-5.76 0.512a32 32 0 0 1-32-32V161.28l-263.68 263.68a32 32 0 0 1-40.768 3.712l-4.48-3.712a32 32 0 0 1 0-45.248z" /></svg>