<?xml version="1.0" standalone="no"?><!DOCTYPE svg PUBLIC "-//W3C//DTD SVG 1.1//EN" "http://www.w3.org/Graphics/SVG/1.1/DTD/svg11.dtd"><svg class="icon" width="200px" height="200.00px" viewBox="0 0 1024 1024" version="1.1" xmlns="http://www.w3.org/2000/svg"><path fill="#e6e6e6" d="M512 64a256 256 0 1 1 0 512 256 256 0 0 1 0-512z m0 64a192 192 0 1 0 0 384 192 192 0 0 0 0-384zM512 512c242.24 0 439.872 176.192 448 416.512 0 17.408-14.08 31.488-31.488 31.488h-0.64a31.872 31.872 0 0 1-31.872-31.488C893.824 718.272 722.752 576 512 576a384 384 0 0 0-383.936 376.32v-23.808a31.872 31.872 0 0 1-31.936 31.488h-0.64A31.552 31.552 0 0 1 64 928.512C64 699.52 266.176 512 512 512z" /></svg>