<?xml version="1.0" standalone="no"?><!DOCTYPE svg PUBLIC "-//W3C//DTD SVG 1.1//EN" "http://www.w3.org/Graphics/SVG/1.1/DTD/svg11.dtd"><svg class="icon" width="200px" height="200.00px" viewBox="0 0 1024 1024" version="1.1" xmlns="http://www.w3.org/2000/svg"><path fill="#e6e6e6" d="M594.24 64A237.76 237.76 0 0 1 710.4 509.312 240.64 240.64 0 0 1 593.152 960h-335.36a64 64 0 0 1-64-64l-0.064-356.48H192V128a64 64 0 0 1 64-64h338.24z m-0.576 478.848H257.792v320.256a32 32 0 0 0 32 32h303.872a176.128 176.128 0 1 0 0-352.256zM592.384 128H288a32 32 0 0 0-32 32v319.232h336.384a175.616 175.616 0 1 0 0-351.232z" /></svg>