<?xml version="1.0" standalone="no"?><!DOCTYPE svg PUBLIC "-//W3C//DTD SVG 1.1//EN" "http://www.w3.org/Graphics/SVG/1.1/DTD/svg11.dtd"><svg class="icon" width="200px" height="200.00px" viewBox="0 0 1024 1024" version="1.1" xmlns="http://www.w3.org/2000/svg"><path fill="#e6e6e6" d="M863.424 544.64a64 64 0 0 1 64 64v256a64 64 0 0 1-64 64h-256a64 64 0 0 1-64-64v-256a64 64 0 0 1 64-64z m-448 0a64 64 0 0 1 64 64v256a64 64 0 0 1-64 64h-256a64 64 0 0 1-64-64v-256a64 64 0 0 1 64-64h256z m416 64h-192l-5.76 0.512a32 32 0 0 0-26.24 31.488v192l0.512 5.76a32 32 0 0 0 31.488 26.24h192a32 32 0 0 0 32-32v-192l-0.512-5.76a32 32 0 0 0-31.488-26.24z m-448 0h-192a32 32 0 0 0-31.488 26.24l-0.512 5.76v192a32 32 0 0 0 26.24 31.488l5.76 0.512h192a32 32 0 0 0 31.488-26.24l0.512-5.76v-192a32 32 0 0 0-32-32z m480-512a64 64 0 0 1 64 64v256a64 64 0 0 1-64 64h-256a64 64 0 0 1-64-64v-256a64 64 0 0 1 64-64h256z m-32 64h-192a32 32 0 0 0-31.488 26.24l-0.512 5.76v192a32 32 0 0 0 26.24 31.488l5.76 0.512h192a32 32 0 0 0 31.488-26.24l0.512-5.76v-192a32 32 0 0 0-32-32zM441.728 109.44a30.528 30.528 0 0 1 43.072-2.944c13.504 11.712 15.36 32 4.288 46.08L250.688 454.208a30.528 30.528 0 0 1-43.968 4.096 33.472 33.472 0 0 1-7.424-9.152L94.528 289.024a32.448 32.448 0 0 1 8.96-44.672 31.552 31.552 0 0 1 44.096 8.896l81.728 124.8 211.52-267.456a30.528 30.528 0 0 1 0.448-0.576z" /></svg>