<?xml version="1.0" standalone="no"?><!DOCTYPE svg PUBLIC "-//W3C//DTD SVG 1.1//EN" "http://www.w3.org/Graphics/SVG/1.1/DTD/svg11.dtd"><svg class="icon" width="200px" height="200.00px" viewBox="0 0 1024 1024" version="1.1" xmlns="http://www.w3.org/2000/svg"><path fill="#e6e6e6" d="M540.608 80.64a32 32 0 0 0 0 45.248l172.288 172.224H497.408c-176.704 0-315.392 119.68-315.392 288 0 168.448 117.44 288 307.84 288h51.2a32 32 0 0 0 5.76-63.488l-5.76-0.576H488.832c-181.952-8.32-242.816-106.752-242.816-223.936 0-117.12 103.168-216.96 238.592-223.68l12.8-0.32h224l2.688-0.256L543.232 542.72a32 32 0 0 0 45.248 45.248l226.304-226.24a32 32 0 0 0 6.464-35.968l-0.768-4.352a31.872 31.872 0 0 0-8.32-14.528L585.856 80.576a32 32 0 0 0-45.248 0z" /></svg>