<?xml version="1.0" standalone="no"?><!DOCTYPE svg PUBLIC "-//W3C//DTD SVG 1.1//EN" "http://www.w3.org/Graphics/SVG/1.1/DTD/svg11.dtd"><svg class="icon" width="200px" height="200.00px" viewBox="0 0 1024 1024" version="1.1" xmlns="http://www.w3.org/2000/svg"><path fill="#e6e6e6" d="M960 512c-133.76 213.312-283.072 320-448 320-23.424 0-46.592-2.176-69.376-6.464L512.64 704l10.624-0.32a192 192 0 0 0 155.392-287.104l79.168-137.152C828.8 332.608 896.192 410.176 960 512zM512 192c23.872 0 47.424 2.24 70.656 6.72L512.64 320H512a192 192 0 0 0-165.952 288.64l-78.912 136.704C195.84 692.096 128.128 614.336 64 512c133.76-213.312 283.072-320 448-320z m128 320a128 128 0 0 1-86.272 121.024L637.696 487.68c1.536 7.872 2.304 16 2.304 24.384zM472.064 390.4L386.688 538.24A128 128 0 0 1 472.064 390.4zM710.431187 105.516045m27.712813 16l0 0q27.712813 16 11.712813 43.712813l-416 720.533136q-16 27.712813-43.712813 11.712813l0 0q-27.712813-16-11.712813-43.712813l416-720.533136q16-27.712813 43.712813-11.712813Z" /></svg>