<?xml version="1.0" standalone="no"?><!DOCTYPE svg PUBLIC "-//W3C//DTD SVG 1.1//EN" "http://www.w3.org/Graphics/SVG/1.1/DTD/svg11.dtd"><svg class="icon" width="200px" height="200.00px" viewBox="0 0 1024 1024" version="1.1" xmlns="http://www.w3.org/2000/svg"><path fill="#e6e6e6" d="M512 0a512 512 0 1 1 0 1024A512 512 0 0 1 512 0zM355.456 311.296a32 32 0 1 0-45.248 45.248l158.4 158.336-158.4 158.4a32 32 0 0 0 45.248 45.312L513.92 560.128l158.4 158.464a32 32 0 0 0 40.832 3.648l4.416-3.648a32 32 0 0 0 0-45.312L559.04 514.88l158.464-158.336a32 32 0 0 0-45.248-45.248L513.856 469.632z" /></svg>