<?xml version="1.0" standalone="no"?><!DOCTYPE svg PUBLIC "-//W3C//DTD SVG 1.1//EN" "http://www.w3.org/Graphics/SVG/1.1/DTD/svg11.dtd"><svg class="icon" width="200px" height="200.00px" viewBox="0 0 1024 1024" version="1.1" xmlns="http://www.w3.org/2000/svg"><path fill="#e6e6e6" d="M589.888 202.496l5.696 1.024a32 32 0 0 1 23.616 33.472l-1.024 5.76-149.12 556.288a32 32 0 0 1-62.72-10.88l0.96-5.632 149.12-556.416a32 32 0 0 1 27.84-23.552h5.632zM303.36 301.952a32 32 0 0 1 3.712 40.832l-3.712 4.416-160 160 160 160a32 32 0 0 1-45.248 45.248L77.12 531.456a31.872 31.872 0 0 1-9.216-19.904v-8.704a31.872 31.872 0 0 1 5.568-15.488l3.648-4.416 181.056-180.992a32 32 0 0 1 45.248 0z m413.824 0a32 32 0 0 1 45.248 0l181.056 180.992 3.712 4.48c3.2 4.608 5.12 9.984 5.504 15.424v8.704a31.872 31.872 0 0 1-9.216 19.84l-181.056 181.056a32 32 0 1 1-45.248-45.248l160.064-160-160-160-3.776-4.48a32 32 0 0 1 3.712-40.768z" /></svg>