<?xml version="1.0" standalone="no"?><!DOCTYPE svg PUBLIC "-//W3C//DTD SVG 1.1//EN" "http://www.w3.org/Graphics/SVG/1.1/DTD/svg11.dtd"><svg class="icon" width="200px" height="200.00px" viewBox="0 0 1024 1024" version="1.1" xmlns="http://www.w3.org/2000/svg"><path fill="#e6e6e6" d="M415.424 544.64a64 64 0 0 1 64 64v256a64 64 0 0 1-64 64h-256a64 64 0 0 1-64-64v-320h320z m352 19.712l102.272 59.008a64 64 0 0 1 32 55.424v118.144a64 64 0 0 1-32 55.424l-102.336 59.008a64 64 0 0 1-64 0l-102.272-59.008a64 64 0 0 1-32-55.424v-118.144a64 64 0 0 1 32-55.424l102.272-59.008a64 64 0 0 1 64 0z m-384 44.288h-224v224a32 32 0 0 0 26.24 31.488l5.76 0.512h192a32 32 0 0 0 31.488-26.24l0.512-5.76v-192a32 32 0 0 0-32-32z m327.616 15.936l-7.68 3.776-46.848 27.008a64 64 0 0 0-31.552 47.872l-0.448 7.552v54.144a64 64 0 0 0 25.728 51.2l6.272 4.224 46.848 27.008a64 64 0 0 0 56.384 3.776l7.68-3.776 46.848-27.008a64 64 0 0 0 31.552-47.936l0.448-7.488v-54.144a64 64 0 0 0-25.728-51.2l-6.272-4.224-46.912-27.008a64 64 0 0 0-56.32-3.84zM352 768a32 32 0 1 1 0 64h-128a32 32 0 1 1 0-64h128z m384-64a32 32 0 1 1 0 64 32 32 0 0 1 0-64z m127.424-607.36a64 64 0 0 1 64 64v256a64 64 0 0 1-64 64h-256a64 64 0 0 1-64-64v-320h320z m-384 0v320a64 64 0 0 1-64 64h-320v-320a64 64 0 0 1 64-64h320z m352 64h-224v224a32 32 0 0 0 26.24 31.488l5.76 0.512h192a32 32 0 0 0 31.488-26.24l0.512-5.76v-192a32 32 0 0 0-32-32z m-416 0h-224a32 32 0 0 0-31.488 26.24l-0.512 5.76v224h224a32 32 0 0 0 31.488-26.24l0.512-5.76v-224zM352 320a32 32 0 0 1 0 64h-128a32 32 0 0 1 0-64h128z m448 0a32 32 0 1 1 0 64h-128a32 32 0 1 1 0-64h128z" /></svg>