<?xml version="1.0" standalone="no"?><!DOCTYPE svg PUBLIC "-//W3C//DTD SVG 1.1//EN" "http://www.w3.org/Graphics/SVG/1.1/DTD/svg11.dtd"><svg class="icon" width="200px" height="200.00px" viewBox="0 0 1024 1024" version="1.1" xmlns="http://www.w3.org/2000/svg"><path fill="#e6e6e6" d="M640 64a64 64 0 0 1 64 64v128h192a64 64 0 0 1 64 64v576a64 64 0 0 1-64 64H320a64 64 0 0 1-64-64v-192H128a64 64 0 0 1-64-64V128a64 64 0 0 1 64-64h512z m224 256h-512a32 32 0 0 0-31.488 26.24L320 352v512a32 32 0 0 0 26.24 31.488L352 896h512a32 32 0 0 0 31.488-26.24L896 864v-512a32 32 0 0 0-32-32zM606.72 127.232H162.24a32 32 0 0 0-31.488 26.24l-0.512 5.76v448.64a32 32 0 0 0 26.24 31.424l5.76 0.576L256 639.808V320a64 64 0 0 1 64-64h318.656V159.232a32 32 0 0 0-32-32z" /></svg>