<?xml version="1.0" standalone="no"?><!DOCTYPE svg PUBLIC "-//W3C//DTD SVG 1.1//EN" "http://www.w3.org/Graphics/SVG/1.1/DTD/svg11.dtd"><svg class="icon" width="200px" height="200.00px" viewBox="0 0 1024 1024" version="1.1" xmlns="http://www.w3.org/2000/svg"><path fill="#e6e6e6" d="M836.096 256.64L772.16 902.4a64 64 0 0 1-63.68 57.664H315.2a64 64 0 0 1-63.744-58.176l-59.264-645.12h643.904z m-62.976 64.128H255.808l61.824 549.056a32 32 0 0 0 31.808 28.416h328.512a32 32 0 0 0 31.808-28.352l63.36-549.12zM197.312 125.952h636.672a64 64 0 0 1 64 64v1.6H133.312v-1.6a64 64 0 0 1 64-64z m158.08 229.888a32 32 0 0 1 31.936 30.016l28.16 450.624a30.08 30.08 0 0 1-30.08 31.936h-1.92a32 32 0 0 1-31.936-30.016l-28.16-450.56a30.08 30.08 0 0 1 28.16-31.936h3.84z m158.08 0.576a32 32 0 0 1 32 32v448a32 32 0 1 1-64 0v-448a32 32 0 0 1 32-32z m166.72-2.816a29.696 29.696 0 0 1 29.568 31.872l-34.112 453.376a32 32 0 0 1-31.872 29.568h-2.368a29.696 29.696 0 0 1-29.568-31.936l34.112-453.312a32 32 0 0 1 31.936-29.568h2.304zM547.264 64c31.872 0 58.176 24 61.76 54.912l0.384 7.296h-192c0-34.368 27.84-62.208 62.208-62.208h67.648z" /></svg>