<?xml version="1.0" standalone="no"?><!DOCTYPE svg PUBLIC "-//W3C//DTD SVG 1.1//EN" "http://www.w3.org/Graphics/SVG/1.1/DTD/svg11.dtd"><svg class="icon" width="200px" height="200.00px" viewBox="0 0 1024 1024" version="1.1" xmlns="http://www.w3.org/2000/svg"><path fill="#e6e6e6" d="M62.4 531.776a32 32 0 0 1 32 32v353.216h832.64V564.736a32 32 0 0 1 26.24-31.488l5.76-0.512a32 32 0 0 1 32 32v384a32.192 32.192 0 0 1-32 32.256h-896a32 32 0 0 1-30.08-20.864l-0.64-1.216a31.936 31.936 0 0 1-1.92-11.136v-384a32 32 0 0 1 32-32zM509.376 52.352a32 32 0 0 1 32 32v596.608l263.68-263.68a32 32 0 0 1 40.768-3.712l4.48 3.712a32 32 0 0 1 0 45.248l-316.8 316.8a32 32 0 0 1-49.792-5.632L169.728 459.52a32 32 0 1 1 45.248-45.248l262.4 262.336V84.352a32 32 0 0 1 26.24-31.488z" /></svg>