<?xml version="1.0" standalone="no"?><!DOCTYPE svg PUBLIC "-//W3C//DTD SVG 1.1//EN" "http://www.w3.org/Graphics/SVG/1.1/DTD/svg11.dtd"><svg class="icon" width="200px" height="200.00px" viewBox="0 0 1024 1024" version="1.1" xmlns="http://www.w3.org/2000/svg"><path fill="#e6e6e6" d="M512.96 52.544a32 32 0 0 1 32 32v63.424l288.32 0.064a64 64 0 0 1 64 64v395.648l-0.64 0.064v62.976h-182.528l137.728 238.464a32 32 0 0 1-7.04 40.384l-4.672 3.328a32 32 0 0 1-43.712-11.712l-71.232-123.328a32.128 32.128 0 0 1-6.784 0.704h-414.08L229.76 947.648a32 32 0 1 1-55.424-32l141.44-244.992-186.496 0.064V212.032a64 64 0 0 1 64-64h287.616V84.48a32 32 0 0 1 32-32z m127.36 618.24H389.568l-48.384 83.712h347.392l-48.384-83.776zM128.64 607.68v64h-32a32 32 0 1 1 0-64h32z m800 0a32 32 0 0 1 5.76 63.488l-5.76 0.512h-32v-1.024l0.64 0.064v-63.104l31.36 0.064z m-127.36-395.712h-576a32 32 0 0 0-31.488 26.24l-0.512 5.76V608.64h640V244.032a32 32 0 0 0-32-32z" /></svg>