<?xml version="1.0" standalone="no"?><!DOCTYPE svg PUBLIC "-//W3C//DTD SVG 1.1//EN" "http://www.w3.org/Graphics/SVG/1.1/DTD/svg11.dtd"><svg class="icon" width="200px" height="200.00px" viewBox="0 0 1024 1024" version="1.1" xmlns="http://www.w3.org/2000/svg"><path fill="#e6e6e6" d="M512 192c164.928 0 314.24 106.688 448 320-133.76 213.312-283.072 320-448 320s-314.24-106.688-448-320c133.76-213.312 283.072-320 448-320z m0 128a192 192 0 1 0 0 384 192 192 0 0 0 0-384zM512 512m-128 0a128 128 0 1 0 256 0 128 128 0 1 0-256 0Z" /></svg>