<?xml version="1.0" standalone="no"?><!DOCTYPE svg PUBLIC "-//W3C//DTD SVG 1.1//EN" "http://www.w3.org/Graphics/SVG/1.1/DTD/svg11.dtd"><svg class="icon" width="200px" height="200.00px" viewBox="0 0 1024 1024" version="1.1" xmlns="http://www.w3.org/2000/svg"><path fill="#e6e6e6" d="M512 192c164.928 0 314.24 106.688 448 320-133.76 213.312-283.072 320-448 320s-314.24-106.688-448-320c133.76-213.312 283.072-320 448-320z m0 64C370.56 256 242.56 341.312 128 512c114.56 170.688 242.56 256 384 256s269.44-85.312 384-256c-114.56-170.688-242.56-256-384-256zM512 320a192 192 0 1 1 0 384 192 192 0 0 1 0-384z m0 64a128 128 0 1 0 0 256 128 128 0 0 0 0-256z" /></svg>