<?xml version="1.0" standalone="no"?><!DOCTYPE svg PUBLIC "-//W3C//DTD SVG 1.1//EN" "http://www.w3.org/Graphics/SVG/1.1/DTD/svg11.dtd"><svg class="icon" width="200px" height="200.00px" viewBox="0 0 1024 1024" version="1.1" xmlns="http://www.w3.org/2000/svg"><path fill="#e6e6e6" d="M640 453.056V928a32 32 0 1 1-64 0V426.496a32 32 0 0 1 8.256-21.44l27.136-30.208 1.408-1.216 167.744-192.64A32 32 0 0 0 756.48 128H268.928a32 32 0 0 0-27.584 48.256l3.392 4.672L420.672 384H419.84l20.416 23.68A32 32 0 0 1 448 428.544V736a32 32 0 1 1-64 0V452.352C384 437.76 368.96 414.976 338.944 384H338.56L154.688 169.664A64 64 0 0 1 203.264 64h617.472a64 64 0 0 1 48.576 105.664L685.44 384l0.256 0.064c-30.464 31.488-45.696 54.464-45.696 69.056z" /></svg>