<?xml version="1.0" standalone="no"?><!DOCTYPE svg PUBLIC "-//W3C//DTD SVG 1.1//EN" "http://www.w3.org/Graphics/SVG/1.1/DTD/svg11.dtd"><svg class="icon" width="200px" height="200.00px" viewBox="0 0 1024 1024" version="1.1" xmlns="http://www.w3.org/2000/svg"><path fill="#e6e6e6" d="M597.756264 24.774245a57.919638 57.919638 0 0 1 63.103606-22.527859c36.095774 11.26393 74.431535 24.767845 108.287323 45.119718 20.287873 13.503916 31.551803 38.33576 27.071831 60.86362a100.415372 100.415372 0 0 0 27.07183 92.479422c24.767845 24.831845 58.623634 33.855788 92.479422 27.07183 24.767845-6.783958 49.59969 6.783958 60.86362 27.071831a575.9964 575.9964 0 0 1 45.119718 108.287323 56.703646 56.703646 0 0 1-22.527859 63.103606c-29.311817 20.351873-47.359704 49.66369-47.359704 85.759464 0 36.095774 18.047887 67.647577 47.359704 85.695464 20.287873 13.503916 29.311817 38.39976 22.527859 63.167606-11.26393 36.095774-24.767845 74.431535-45.119718 108.223323-13.503916 20.351873-38.33576 31.615802-60.86362 27.071831a100.415372 100.415372 0 0 0-92.479422 27.071831c-24.831845 22.591859-33.855788 58.687633-27.07183 92.479422 6.783958 24.831845-6.783958 49.66369-27.071831 60.927619a575.9964 575.9964 0 0 1-108.287323 45.119718c-4.479972 2.239986-11.26393 2.239986-15.807902 2.239986a58.879632 58.879632 0 0 1-47.359704-24.831845c-20.287873-29.311817-49.59969-47.359704-85.695464-47.359704s-67.647577 18.047887-85.759464 47.359704a57.919638 57.919638 0 0 1-63.103606 22.591859c-36.095774-11.26393-74.431535-24.831845-108.287323-45.119718-20.287873-13.567915-31.551803-38.39976-27.071831-60.927619a100.415372 100.415372 0 0 0-27.07183-92.479422c-22.527859-24.767845-58.623634-33.791789-92.479422-27.071831-24.767845 4.479972-49.59969-6.719958-60.86362-27.071831a575.9964 575.9964 0 0 1-45.119718-108.223323 56.703646 56.703646 0 0 1 22.527859-63.167606c29.311817-20.287873 47.359704-49.59969 47.359704-85.759464 0-36.031775-18.047887-67.647577-47.359704-85.695464a57.919638 57.919638 0 0 1-22.527859-63.103606C13.439916 327.044356 27.007831 288.644596 47.359704 254.852807c13.503916-20.287873 38.33576-31.551803 60.86362-27.071831a100.415372 100.415372 0 0 0 92.479422-27.07183c24.831845-22.527859 33.855788-58.623634 27.07183-92.479422-6.783958-24.831845 6.783958-49.59969 27.071831-60.86362A575.9964 575.9964 0 0 1 363.13373 2.246386a56.703646 56.703646 0 0 1 63.167606 22.527859c20.287873 29.311817 49.59969 47.359704 85.695464 47.359704S579.644377 54.086062 597.756264 24.774245z m-230.142562 41.59974l-3.13598 0.639996-21.631865 8.127949a469.757064 469.757064 0 0 0-41.919738 19.135881l-2.815982 2.047987a11.519928 11.519928 0 0 0-3.327979 9.59994v0.255998a169.470941 169.470941 0 0 1-48.831695 139.775127 169.406941 169.406941 0 0 1-136.511147 49.215692 16.959894 16.959894 0 0 0-16.959894 9.151943l-8.319948 17.279892a512.764795 512.764795 0 0 0-14.527909 35.583778l-1.215993 4.67197a23.807851 23.807851 0 0 0 7.807952 21.439866l0.575996 0.447998A170.238936 170.238936 0 0 1 134.527159 512.0032c0 54.079662-24.767845 102.015362-64.383597 133.951163l-2.303986 2.559984a11.19993 11.19993 0 0 0-1.279992 9.855938c7.871951 22.33586 17.023894 44.159724 27.711827 64.639596l2.047987 2.879982a11.519928 11.519928 0 0 0 9.59994 3.327979l1.279992-0.191998a169.342942 169.342942 0 0 1 138.751133 49.023693c36.79977 36.86377 55.039656 88.06345 48.831695 140.031125v0.255998a11.26393 11.26393 0 0 0 5.951962 11.32793l20.223874 9.855938a517.756764 517.756764 0 0 0 43.007731 17.279892c5.439966 1.919988 11.519928 0.255998 15.103906-4.159974l8.767945-9.855938A169.918938 169.918938 0 0 1 511.9968 889.472841a170.878932 170.878932 0 0 1 132.79917 62.911607l2.559984 2.367985a14.079912 14.079912 0 0 0 12.927919 1.919988l0.319998-0.064c20.927869-7.423954 41.407741-15.9999 60.671621-25.919838l2.943982-1.983987a14.33591 14.33591 0 0 0 4.79997-12.479922l-0.128-0.831995-0.063999-0.767995a169.342942 169.342942 0 0 1 49.279692-136.575147 169.406941 169.406941 0 0 1 137.59914-49.087693 15.167905 15.167905 0 0 0 15.167905-8.127949l8.831945-18.239886c5.631965-12.351923 10.751933-25.023844 15.359904-37.759764l1.151993-4.991969a20.86387 20.86387 0 0 0-7.039956-17.919888l-0.447998-0.319998A170.558934 170.558934 0 0 1 889.466441 512.0032c0-53.375666 24.06385-100.73537 62.783607-132.671171l2.431985-2.559984a14.33591 14.33591 0 0 0 1.919988-13.247917l-0.063999-0.383998a495.9969 495.9969 0 0 0-25.983838-60.607621l-1.919988-2.815982a14.079912 14.079912 0 0 0-12.159924-4.735971h-0.447997c-51.455678 5.439966-101.759364-12.79992-137.983138-49.023693a169.342942 169.342942 0 0 1-48.767695-140.479122 10.879932 10.879932 0 0 0-5.759964-11.007931l-19.391879-9.471941a513.59679 513.59679 0 0 0-42.879732-17.343892 15.679902 15.679902 0 0 0-17.151893 4.671971l-8.703945 9.66394A169.854938 169.854938 0 0 1 511.9968 134.46956a170.878932 170.878932 0 0 1-132.607171-62.655609l-0.639996-0.767995a12.79992 12.79992 0 0 0-14.271911-4.031975zM511.9968 252.548822c142.079112 0 259.390379 117.247267 259.390379 259.390378 0 142.079112-117.247267 259.390379-259.390379 259.390379-142.079112 0-259.390379-117.311267-259.390379-259.390379C252.606421 369.924088 369.917688 252.612821 511.9968 252.612821z m0 67.647577A191.550803 191.550803 0 0 0 320.317998 512.0032 191.550803 191.550803 0 0 0 511.9968 703.682002 191.550803 191.550803 0 0 0 703.739602 512.0032 191.550803 191.550803 0 0 0 511.9968 320.260398z" /></svg>