<?xml version="1.0" standalone="no"?><!DOCTYPE svg PUBLIC "-//W3C//DTD SVG 1.1//EN" "http://www.w3.org/Graphics/SVG/1.1/DTD/svg11.dtd"><svg class="icon" width="200px" height="200.00px" viewBox="0 0 1024 1024" version="1.1" xmlns="http://www.w3.org/2000/svg"><path fill="#e6e6e6" d="M320 64m32 0l512 0q32 0 32 32l0 0q0 32-32 32l-512 0q-32 0-32-32l0 0q0-32 32-32ZM650.56 118.4L435.264 922.176l-61.824-16.576L588.736 101.888zM128 896m32 0l512 0q32 0 32 32l0 0q0 32-32 32l-512 0q-32 0-32-32l0 0q0-32 32-32Z" /></svg>