<?xml version="1.0" standalone="no"?><!DOCTYPE svg PUBLIC "-//W3C//DTD SVG 1.1//EN" "http://www.w3.org/Graphics/SVG/1.1/DTD/svg11.dtd"><svg class="icon" width="200px" height="200.00px" viewBox="0 0 1024 1024" version="1.1" xmlns="http://www.w3.org/2000/svg"><path fill="#e6e6e6" d="M896 128a128 128 0 0 1 128 128v512a128 128 0 0 1-128 128H128a128 128 0 0 1-128-128V256a128 128 0 0 1 128-128h768z m0 64H128a64 64 0 0 0-64 64v512a64 64 0 0 0 64 64h768a64 64 0 0 0 64-64V256a64 64 0 0 0-64-64z m-203.904 204.288a64 64 0 0 1 21.952 21.952l137.152 228.48h-26.048a32 32 0 0 1-27.904-16.32l-46.912-83.456-62.4-104.512a32 32 0 0 0-51.52-4.672l-3.392 4.672-48.64 81.472h-0.96l-22.4 37.248 98.176 163.648h-26.048a32 32 0 0 1-27.904-16.384l-46.912-83.456-17.728-29.76-0.32 0.576-14.464-25.344-29.888-49.92a32 32 0 0 0-51.52-4.736l-3.392 4.672-48.64 81.472h-0.96L327.04 709.312a32 32 0 0 1-27.392 15.488H275.2l137.088-228.48a64 64 0 0 1 109.76 0l17.664 29.44 64.64-107.52a64 64 0 0 1 87.744-21.888z m-419.456-96a96 96 0 1 1 0 192 96 96 0 0 1 0-192z m0 32a64 64 0 1 0 0 128 64 64 0 0 0 0-128z" /></svg>