<?xml version="1.0" standalone="no"?><!DOCTYPE svg PUBLIC "-//W3C//DTD SVG 1.1//EN" "http://www.w3.org/Graphics/SVG/1.1/DTD/svg11.dtd"><svg class="icon" width="200px" height="200.00px" viewBox="0 0 1024 1024" version="1.1" xmlns="http://www.w3.org/2000/svg"><path fill="#e6e6e6" d="M512 0a512 512 0 1 1 0 1024A512 512 0 0 1 512 0z m0 64a448 448 0 1 0 0 896A448 448 0 0 0 512 64z m1.408 305.664a32 32 0 0 1 31.488 26.24l0.512 5.76v320a32.32 32.32 0 0 1-0.256 3.968 31.68 31.68 0 0 1 29.248 31.68 32 32 0 0 1-26.24 31.488l-5.76 0.512h-64a32 32 0 0 1-5.76-63.488l5.76-0.512h3.2l-0.192-3.648V474.88a32 32 0 0 1-44.352-44.672l3.712-4.48 45.248-45.184a31.872 31.872 0 0 1 15.04-8.448 31.36 31.36 0 0 1 12.352-2.56z m-1.6-128.768l5.76 0.384a32 32 0 1 1-11.328 0.256l5.568-0.64z" /></svg>