<?xml version="1.0" standalone="no"?><!DOCTYPE svg PUBLIC "-//W3C//DTD SVG 1.1//EN" "http://www.w3.org/Graphics/SVG/1.1/DTD/svg11.dtd"><svg class="icon" width="200px" height="200.00px" viewBox="0 0 1024 1024" version="1.1" xmlns="http://www.w3.org/2000/svg"><path fill="#e6e6e6" d="M512 128c247.424 0 448 143.296 448 320 0 157.44-159.104 288.256-368.768 315.008-57.984 20.8-135.36 69.76-232.064 146.752-37.76-109.824-73.664-176.96-107.712-201.408C200.32 671.616 64 555.328 64 448c0-176.704 200.576-320 448-320z m0 64C314.048 192 153.6 306.56 153.6 448c0 79.36 50.56 150.4 130.048 197.312 52.928 31.36 87.552 84.544 103.872 159.68 104.32-66.432 171.968-102.144 202.944-107.136C748.672 663.808 870.4 570.112 870.4 448c0-141.44-160.448-256-358.4-256z" /></svg>