<?xml version="1.0" standalone="no"?><!DOCTYPE svg PUBLIC "-//W3C//DTD SVG 1.1//EN" "http://www.w3.org/Graphics/SVG/1.1/DTD/svg11.dtd"><svg class="icon" width="200px" height="200.00px" viewBox="0 0 1024 1024" version="1.1" xmlns="http://www.w3.org/2000/svg"><path fill="#e6e6e6" d="M670.336 65.984a128 128 0 0 1 128 128v640a128 128 0 0 1-128 128h-320a128 128 0 0 1-128-128v-640a128 128 0 0 1 128-128h320z m0 64h-320a64 64 0 0 0-64 64v640a64 64 0 0 0 64 64h320a64 64 0 0 0 64-64v-640a64 64 0 0 0-64-64zM512.128 770.56a32 32 0 1 1 0 64 32 32 0 0 1 0-64z" /></svg>