<?xml version="1.0" standalone="no"?><!DOCTYPE svg PUBLIC "-//W3C//DTD SVG 1.1//EN" "http://www.w3.org/Graphics/SVG/1.1/DTD/svg11.dtd"><svg class="icon" width="200px" height="200.00px" viewBox="0 0 1024 1024" version="1.1" xmlns="http://www.w3.org/2000/svg"><path fill="#e6e6e6" d="M509.12 64a64 64 0 0 1 64 64l0.064 8.064A256.128 256.128 0 0 1 764.8 371.2l0.32 13.504h0.512l0.256 30.72 0.768 26.944 1.216 23.36c0.512 7.168 1.024 13.76 1.664 19.712 2.56 23.68 15.36 53.888 38.272 90.56l68.992 88.704A64 64 0 0 1 826.24 768l-135.424 0.064A189.952 189.952 0 0 1 511.232 896h-4.224c-83.2 0-153.856-53.504-179.52-127.936L192 768a64 64 0 0 1-50.56-103.296l71.36-91.648c21.76-35.392 33.92-64.576 36.416-87.616l0.896-9.408 1.408-21.504 1.024-25.216 0.512-28.8L253.12 384a256.128 256.128 0 0 1 192-247.936V128a64 64 0 0 1 64-64z" /></svg>