<?xml version="1.0" standalone="no"?><!DOCTYPE svg PUBLIC "-//W3C//DTD SVG 1.1//EN" "http://www.w3.org/Graphics/SVG/1.1/DTD/svg11.dtd"><svg class="icon" width="200px" height="200.00px" viewBox="0 0 1024 1024" version="1.1" xmlns="http://www.w3.org/2000/svg"><path fill="#e6e6e6" d="M800.64 42.624a64 64 0 0 1 64 64v810.624a64 64 0 0 1-64 64h-576a64 64 0 0 1-64-64V312.96a64 64 0 0 1 17.984-44.544L378.624 62.08a64 64 0 0 1 45.952-19.456h376z m-32 52.992H432.64a32 32 0 0 0-23.808 10.688L232.768 303.104a32 32 0 0 0-8.128 21.376v571.136a32 32 0 0 0 32 32h512a32 32 0 0 0 32-32v-768a32 32 0 0 0-32-32z" /></svg>