<?xml version="1.0" standalone="no"?><!DOCTYPE svg PUBLIC "-//W3C//DTD SVG 1.1//EN" "http://www.w3.org/Graphics/SVG/1.1/DTD/svg11.dtd"><svg class="icon" width="200px" height="200.00px" viewBox="0 0 1024 1024" version="1.1" xmlns="http://www.w3.org/2000/svg"><path fill="#e6e6e6" d="M832 64a128 128 0 0 1 128 128v320a128 128 0 0 1-128 128H192a128 128 0 0 1-128-128V192a128 128 0 0 1 128-128h640z m0 64H192a64 64 0 0 0-64 64v320a64 64 0 0 0 64 64h640a64 64 0 0 0 64-64V192a64 64 0 0 0-64-64z m-351.488 515.84h64v256h-64v-256zM192 896h640v64H192v-64z" /></svg>