<?xml version="1.0" standalone="no"?><!DOCTYPE svg PUBLIC "-//W3C//DTD SVG 1.1//EN" "http://www.w3.org/Graphics/SVG/1.1/DTD/svg11.dtd"><svg class="icon" width="200px" height="200.00px" viewBox="0 0 1024 1024" version="1.1" xmlns="http://www.w3.org/2000/svg"><path fill="#e6e6e6" d="M302.848 216.96l271.488 271.488a31.872 31.872 0 0 1 9.28 19.84v8.704a31.872 31.872 0 0 1-9.28 19.904l-271.488 271.552a32 32 0 0 1-45.248-45.248L508.032 512.64 257.6 262.144a32 32 0 1 1 45.248-45.248z m472.768 300.032a31.872 31.872 0 0 1-9.28 19.904l-271.488 271.552a32 32 0 0 1-45.248-45.248l250.432-250.56-250.432-250.496a32 32 0 1 1 45.248-45.248l271.488 271.552a31.872 31.872 0 0 1 9.28 19.84z" /></svg>