<?xml version="1.0" standalone="no"?><!DOCTYPE svg PUBLIC "-//W3C//DTD SVG 1.1//EN" "http://www.w3.org/Graphics/SVG/1.1/DTD/svg11.dtd"><svg class="icon" width="200px" height="200.00px" viewBox="0 0 1024 1024" version="1.1" xmlns="http://www.w3.org/2000/svg"><path fill="#e6e6e6" d="M544 82.496l323.968 187.008a64 64 0 0 1 32 55.424v374.144a64 64 0 0 1-32 55.424L544 941.44a64 64 0 0 1-64 0L156.032 754.56a64 64 0 0 1-32-55.424V324.928a64 64 0 0 1 32-55.424L480 82.56a64 64 0 0 1 64 0z m0 64a64 64 0 0 0-64 0L211.456 301.44a64 64 0 0 0-32 55.424v310.144a64 64 0 0 0 32 55.424L480 877.44a64 64 0 0 0 64 0l268.544-155.008a64 64 0 0 0 32-55.424V356.928a64 64 0 0 0-32-55.424z m106.88 234.048c59.072 59.136 69.76 152.96 40.96 215.04-13.696 11.456-27.328 10.368-40.96-3.328-13.696-13.632-17.728-27.904-12.16-42.816A128 128 0 1 0 548.096 640c20.672-13.44 38.336-12.8 53.12 1.92 14.72 14.72 13.568 30.72-3.456 47.744a192.128 192.128 0 0 1-218.496-309.12 192 192 0 0 1 271.552 0z" /></svg>