<?xml version="1.0" standalone="no"?><!DOCTYPE svg PUBLIC "-//W3C//DTD SVG 1.1//EN" "http://www.w3.org/Graphics/SVG/1.1/DTD/svg11.dtd"><svg class="icon" width="200px" height="200.00px" viewBox="0 0 1024 1024" version="1.1" xmlns="http://www.w3.org/2000/svg"><path fill="#e6e6e6" d="M95.616 224.512m32 0l768 0q32 0 32 32l0 0q0 32-32 32l-768 0q-32 0-32-32l0 0q0-32 32-32ZM95.616 480.512m32 0l768 0q32 0 32 32l0 0q0 32-32 32l-768 0q-32 0-32-32l0 0q0-32 32-32ZM95.616 736.512m32 0l768 0q32 0 32 32l0 0q0 32-32 32l-768 0q-32 0-32-32l0 0q0-32 32-32Z" /></svg>