<?xml version="1.0" standalone="no"?><!DOCTYPE svg PUBLIC "-//W3C//DTD SVG 1.1//EN" "http://www.w3.org/Graphics/SVG/1.1/DTD/svg11.dtd"><svg class="icon" width="200px" height="200.00px" viewBox="0 0 1024 1024" version="1.1" xmlns="http://www.w3.org/2000/svg"><path fill="#e6e6e6" d="M511.616 736.512a32 32 0 1 1 0 64h-384a32 32 0 1 1 0-64h384z m213.76-455.68c1.792 1.728 3.264 3.584 4.544 5.568l178.304 178.432a32 32 0 0 1-45.312 45.248l-126.72-126.72 0.128 336.448a32 32 0 0 1-26.24 31.488l-5.76 0.512a32 32 0 0 1-31.488-26.24l-0.512-5.76-0.064-340.672-127.872 128a32 32 0 0 1-40.768 3.648l-4.48-3.712a32 32 0 0 1-3.648-40.832l3.648-4.416 181.056-180.992a32 32 0 0 1 45.248 0z m-341.76 199.68a32 32 0 1 1 0 64h-256a32 32 0 0 1 0-64h256z m128-256a32 32 0 1 1 0 64h-384a32 32 0 0 1 0-64h384z" /></svg>