<?xml version="1.0" standalone="no"?><!DOCTYPE svg PUBLIC "-//W3C//DTD SVG 1.1//EN" "http://www.w3.org/Graphics/SVG/1.1/DTD/svg11.dtd"><svg class="icon" width="200px" height="200.00px" viewBox="0 0 1024 1024" version="1.1" xmlns="http://www.w3.org/2000/svg"><path fill="#e6e6e6" d="M896 64a64 64 0 0 1 64 64v768a64 64 0 0 1-64 64H128a64 64 0 0 1-64-64V128a64 64 0 0 1 64-64h768z m-36.928 64H164.928a32 32 0 0 0-31.488 26.24l-0.512 5.76v704a32 32 0 0 0 26.24 31.488l5.76 0.512h694.144a32 32 0 0 0 31.488-26.24l0.512-5.76v-704a32 32 0 0 0-32-32zM680.32 306.304c13.248 0 24 14.336 24 32 0 17.728-10.752 32-24 32H544.256v324.608c0 15.168-14.336 27.392-32 27.392s-32-12.224-32-27.392V370.304H344.256c-13.248 0-24-14.272-24-32 0-17.664 10.752-32 24-32h336z" /></svg>